<svg width="36" height="36" viewBox="0 0 36 36" fill="none" xmlns="http://www.w3.org/2000/svg">
<g clip-path="url(#clip0_1_13798)">
<path d="M36 18C36 15.7983 35.604 13.6891 34.8804 11.7392L18 10.9565L1.11959 11.7391C0.39607 13.6891 0 15.7983 0 18C0 20.2018 0.39607 22.311 1.11959 24.2609L18 25.0435L34.8804 24.2609C35.604 22.311 36 20.2018 36 18Z" fill="#0052B4"/>
<path d="M18 35.9999C25.7394 35.9999 32.3372 31.1152 34.8804 24.2607H1.1196C3.66287 31.1152 10.2606 35.9999 18 35.9999Z" fill="#FF9811"/>
<path d="M1.1196 11.7392H34.8805C32.3372 4.88475 25.7394 0 18 0C10.2606 0 3.66287 4.88475 1.1196 11.7392Z" fill="#D80027"/>
</g>
<defs>
<clipPath id="clip0_1_13798">
<rect width="36" height="36" fill="white"/>
</clipPath>
</defs>
</svg>
