<svg width="36" height="36" viewBox="0 0 36 36" fill="none" xmlns="http://www.w3.org/2000/svg">
<g clip-path="url(#clip0_1_13783)">
<path d="M18 36C27.9411 36 36 27.9411 36 18C36 8.05887 27.9411 0 18 0C8.05887 0 0 8.05887 0 18C0 27.9411 8.05887 36 18 36Z" fill="#F0F0F0"/>
<path d="M35.8476 15.6522H20.3479H20.3479V0.152367C19.5793 0.0523125 18.7957 0 18 0C17.2043 0 16.4207 0.0523125 15.6522 0.152367V15.6521V15.6521H0.152367C0.0523125 16.4207 0 17.2041 0 18C0 18.7959 0.0523125 19.5793 0.152367 20.3478H15.6521H15.6521V35.8476C16.4207 35.9477 17.2043 36 18 36C18.7957 36 19.5793 35.9478 20.3478 35.8476V20.3479V20.3479H35.8476C35.9477 19.5793 36 18.7959 36 18C36 17.2041 35.9477 16.4207 35.8476 15.6522V15.6522Z" fill="#D80027"/>
</g>
<defs>
<clipPath id="clip0_1_13783">
<rect width="36" height="36" fill="white"/>
</clipPath>
</defs>
</svg>
