<svg width="36" height="36" viewBox="0 0 36 36" fill="none" xmlns="http://www.w3.org/2000/svg">
<g clip-path="url(#clip0_1_13805)">
<path d="M18 36C27.9411 36 36 27.9411 36 18C36 8.05887 27.9411 0 18 0C8.05887 0 0 8.05887 0 18C0 27.9411 8.05887 36 18 36Z" fill="#F0F0F0"/>
<path d="M36 18C36 10.2607 31.1153 3.6629 24.2609 1.11963V34.8805C31.1153 32.3372 36 25.7394 36 18Z" fill="#D80027"/>
<path d="M0 18C0 25.7394 4.88482 32.3372 11.7392 34.8805V1.11963C4.88482 3.6629 0 10.2607 0 18Z" fill="#0052B4"/>
</g>
<defs>
<clipPath id="clip0_1_13805">
<rect width="36" height="36" fill="white"/>
</clipPath>
</defs>
</svg>
