<svg width="36" height="36" viewBox="0 0 36 36" fill="none" xmlns="http://www.w3.org/2000/svg">
<g clip-path="url(#clip0_1_13791)">
<path d="M18 36C27.9411 36 36 27.9411 36 18C36 8.05887 27.9411 0 18 0C8.05887 0 0 8.05887 0 18C0 27.9411 8.05887 36 18 36Z" fill="#F0F0F0"/>
<path d="M34.8804 24.2609C35.604 22.311 36 20.2019 36 18.0001C36 15.7983 35.604 13.6892 34.8804 11.7393H1.11959C0.39607 13.6892 0 15.7983 0 18.0001C0 20.2019 0.39607 22.311 1.11959 24.2609L18 25.8262L34.8804 24.2609Z" fill="#0052B4"/>
<path d="M18 35.9999C25.7394 35.9999 32.3372 31.1152 34.8804 24.2607H1.1196C3.66287 31.1152 10.2606 35.9999 18 35.9999Z" fill="#D80027"/>
</g>
<defs>
<clipPath id="clip0_1_13791">
<rect width="36" height="36" fill="white"/>
</clipPath>
</defs>
</svg>
