<svg width="40" height="40" viewBox="0 0 40 40" fill="none" xmlns="http://www.w3.org/2000/svg">
<path d="M20 0C31.0457 0 40 8.9543 40 20C40 31.0457 31.0457 40 20 40C8.9543 40 0 31.0457 0 20C0 8.9543 8.9543 0 20 0ZM26.625 33.1875C27.6218 33.1875 27.8142 33.3446 28.4746 32.8057C28.83 32.4728 29.1836 32.1327 29.5703 31.8359C29.8011 31.662 30.0202 31.481 30.2246 31.2764C30.586 30.8605 30.5862 30.8601 30.5654 29.8369C30.5626 29.7074 30.5618 29.5777 30.5625 29.4482C30.5667 29.0932 30.5669 28.7378 30.5625 28.3828C30.5577 28.0059 30.5562 27.6289 30.5566 27.252C30.5575 26.6198 30.5559 25.9876 30.5498 25.3555C30.5425 24.6207 30.5385 23.8862 30.54 23.1514C30.5416 22.4375 30.5409 21.7236 30.5371 21.0098C30.5355 20.7074 30.534 20.4049 30.5342 20.1025C30.5347 19.7412 30.5337 19.3799 30.5293 19.0186C30.5273 18.8852 30.5259 18.7515 30.5244 18.6182C30.5268 18.2243 30.5374 17.8285 30.4746 17.4385C30.3933 17.1607 30.1978 17.0067 29.9688 16.8467C29.8122 16.7547 29.8119 16.7547 29.6826 16.6416C29.6471 16.6094 29.6126 16.5781 29.5781 16.5469C29.4173 16.4076 29.2607 16.2647 29.1064 16.1182C28.9548 15.974 28.8022 15.8312 28.6475 15.6904C28.5774 15.6272 28.5072 15.5637 28.4375 15.5C28.0578 15.125 28.0578 15.125 26.625 15.125V33.1875ZM13.5625 15.125C12.5463 15.125 12.198 14.9581 11.4922 15.5342C11.3999 15.6228 11.3077 15.7118 11.2148 15.7998C11.1816 15.8312 11.1494 15.8621 11.1172 15.8926C11.0162 15.9885 10.9139 16.0835 10.8096 16.1758C10.7709 16.2089 10.7329 16.2413 10.6953 16.2734C10.5794 16.3789 10.4632 16.4816 10.3359 16.5732C10.1289 16.7212 9.93516 16.8767 9.75488 17.0566C9.43218 17.4317 9.43248 17.4326 9.45215 18.4639C9.45479 18.5937 9.45553 18.7236 9.45508 18.8535C9.45191 19.2096 9.45278 19.5658 9.45703 19.9219C9.46167 20.2998 9.46202 20.6777 9.46191 21.0557C9.46163 21.6893 9.464 22.3234 9.46973 22.957C9.47664 23.694 9.48171 24.4309 9.48145 25.168C9.4811 25.9598 9.48326 26.7521 9.4873 27.5439C9.48846 27.7707 9.48895 27.9978 9.48926 28.2246C9.48954 28.5874 9.49028 28.9507 9.49414 29.3135C9.49579 29.4469 9.49771 29.5804 9.49902 29.7139C9.49866 29.9 9.49821 30.0863 9.50098 30.2725C9.50199 30.3296 9.50292 30.385 9.50391 30.4404C9.50197 30.5882 9.50503 30.7301 9.52148 30.877C9.58804 31.076 9.58848 31.0758 9.88965 31.2969C10.0157 31.3821 10.0157 31.3828 10.1758 31.5332C10.3908 31.7304 10.6051 31.9285 10.8252 32.1201C11.0403 32.3051 11.2422 32.4932 11.4375 32.6992C11.4747 32.74 11.5108 32.7798 11.5469 32.8193C11.9843 33.1876 11.9846 33.1875 13.5625 33.1875V15.125ZM15.375 33.1875H17.3125V15.125H15.375V33.1875ZM19.125 33.1875H21.0625V15.125H19.125V33.1875ZM22.875 33.1875H24.8125V15.125H22.875V33.1875ZM32.25 29.8125C33.3856 29.8125 34.7299 30.3029 35.6523 29.6406C35.8741 29.4459 35.988 29.2894 36.0234 28.9922V28.374C36.0228 28.2777 36.0224 28.1813 36.0225 28.085C36.023 27.8223 36.0225 27.5596 36.0215 27.2969C36.0204 27.0177 36.0206 26.7382 36.0205 26.459C36.0204 25.9914 36.0199 25.5233 36.0186 25.0557C36.0167 24.4505 36.0149 23.8454 36.0146 23.2402C36.0144 22.7162 36.0145 22.192 36.0137 21.668C36.0134 21.5007 36.0129 21.3333 36.0127 21.166C36.0124 20.8979 36.0116 20.6294 36.0107 20.3613C36.0104 20.2628 36.0101 20.164 36.0098 20.0654C36.0097 19.9277 36.0103 19.7891 36.0098 19.6514C36.0096 19.6092 36.009 19.5682 36.0088 19.5273C36.0082 19.2761 36.0317 19.0515 35.8633 18.8477C35.46 18.5 35.46 18.5 32.25 18.5V29.8125ZM7.75 18.5C6.58036 18.5 5.2232 18.1012 4.25 18.75C4.08706 18.9465 4.00809 19.0744 3.96875 19.3271C3.96865 19.4027 3.96787 19.4764 3.96777 19.5498C3.96653 19.681 3.96611 19.8122 3.9668 19.9434C3.96735 20.0393 3.96713 20.1355 3.9668 20.2314C3.96535 20.4932 3.9651 20.7549 3.96582 21.0166C3.96665 21.2951 3.96719 21.5741 3.9668 21.8525C3.96614 22.3189 3.96566 22.7856 3.9668 23.252C3.96817 23.7949 3.96913 24.338 3.96777 24.8809C3.96658 25.3506 3.96537 25.8203 3.96582 26.29C3.96621 26.5699 3.96743 26.85 3.9668 27.1299C3.966 27.3971 3.96566 27.6645 3.9668 27.9316C3.96734 28.0301 3.96743 28.129 3.96777 28.2275C3.96699 28.3645 3.96581 28.5018 3.9668 28.6387C3.9672 28.6808 3.96739 28.7218 3.96777 28.7627C3.96822 29.1099 4.02667 29.2932 4.25 29.5625C4.625 29.8125 4.625 29.8125 7.75 29.8125V18.5ZM18.5391 6.89844C18.2034 6.77111 17.9034 6.76138 17.5625 6.875C17.3038 7.04964 17.1682 7.20508 17.0625 7.5C17.0349 7.79303 17.0104 8.1021 17.1992 8.34668C17.3269 8.49982 17.4263 8.62263 17.46 8.82227C17.4612 9.05328 17.4551 9.22329 17.2979 9.39844C17.1509 9.55594 17.0222 9.71308 16.9102 9.89746C16.5441 10.5969 16.4607 11.3082 16.6611 12.0752C16.8306 12.6211 17.1365 13.0764 17.6406 13.3672C17.9297 13.4539 18.148 13.4609 18.4375 13.375C18.7231 13.2195 18.8908 12.9908 19 12.6875C19.0202 12.3893 19.0124 12.1777 18.8477 11.9229C18.7419 11.7645 18.6466 11.6084 18.5625 11.4375C18.5422 11.1435 18.6189 10.9943 18.793 10.7695C18.8638 10.6811 18.9327 10.5911 19 10.5C19.4061 9.81776 19.5896 9.16362 19.4375 8.375C19.2954 7.8242 19.0297 7.22289 18.5391 6.89844ZM22.4766 6.90234C22.1217 6.76162 21.7999 6.73806 21.4492 6.90625C21.2033 7.06811 21.0872 7.28595 21 7.5625C20.9597 7.89612 21.0199 8.08772 21.1875 8.375C21.2845 8.5201 21.3595 8.65377 21.4375 8.8125C21.4548 9.12447 21.3605 9.28464 21.1719 9.51953C21.0537 9.66323 20.9433 9.80368 20.8438 9.96094C20.4667 10.6632 20.4471 11.3551 20.625 12.125C20.8042 12.6398 21.1179 13.0929 21.5859 13.3789C21.869 13.4521 22.0932 13.4525 22.375 13.375C22.637 13.2178 22.7991 13.0217 22.9375 12.75C22.9703 12.484 22.9598 12.2544 22.875 12C22.704 11.7823 22.5922 11.5752 22.5 11.3125C22.5049 11.1082 22.5455 11.0227 22.668 10.8594C22.7843 10.721 22.8944 10.584 23 10.4375C23.4004 9.82463 23.5292 9.12251 23.4111 8.40332C23.2729 7.82082 22.9891 7.24128 22.4766 6.90234ZM26.3789 6.875C26.0383 6.76378 25.6939 6.75616 25.3789 6.94922C25.1639 7.13819 25.0245 7.30638 24.9717 7.59473C24.9518 7.93323 24.986 8.14194 25.1875 8.41797C25.2897 8.5539 25.3667 8.65578 25.4111 8.82031C25.4241 9.05645 25.382 9.17802 25.2422 9.36719C25.0955 9.5214 24.9799 9.6784 24.8672 9.85938C24.4794 10.5319 24.3691 11.3018 24.5625 12.0625C24.7491 12.5956 25.043 13.1153 25.5625 13.375C25.8813 13.4614 26.1336 13.4543 26.4375 13.3125C26.7271 13.1442 26.8211 12.9554 26.9092 12.6436C26.9634 12.3668 26.9416 12.1649 26.7871 11.9258C26.6271 11.7014 26.5091 11.548 26.457 11.2734C26.5021 11.0522 26.5803 10.9188 26.7188 10.7422C27.2987 10.0187 27.4473 9.35805 27.375 8.4375C27.2195 7.80097 26.9318 7.25144 26.3789 6.875ZM14.5039 6.875C14.2015 6.77626 13.9306 6.77313 13.625 6.875C13.3167 7.08053 13.1858 7.25452 13.0879 7.61328C13.0379 7.87743 13.074 8.04119 13.2129 8.27148C13.3132 8.42926 13.4118 8.58512 13.5 8.75C13.5424 9.00883 13.5465 9.1196 13.3984 9.33594L13.25 9.5C12.6892 10.2378 12.5671 10.9075 12.625 11.8125C12.721 12.3525 13.0199 12.8957 13.4375 13.25C13.7741 13.4561 14.0594 13.4618 14.4375 13.375C14.7228 13.2518 14.8653 13.0919 15 12.8125C15.0335 12.4877 15.0699 12.1127 14.8633 11.8389C14.7054 11.6464 14.6295 11.5283 14.5898 11.2773C14.6324 11.0172 14.7137 10.8955 14.875 10.6875C14.9733 10.5711 15.0683 10.4534 15.1592 10.3311C15.5353 9.73724 15.5991 8.98752 15.4756 8.30371C15.2845 7.72433 15.016 7.22369 14.5039 6.875Z" fill="#ECF15E"/>
</svg>
