<svg width="20" height="16" viewBox="0 0 20 16" fill="none" xmlns="http://www.w3.org/2000/svg">
<path d="M14 15H18C18.5523 15 19 14.5523 19 14V13C19 11.3431 17.6569 10 16 10H14M11.7639 6C12.3132 6.61375 13.1115 7 14 7C15.6569 7 17 5.65685 17 4C17 2.34315 15.6569 1 14 1C13.1115 1 12.3132 1.38625 11.7639 2M1 14V13C1 11.3431 2.34315 10 4 10H8C9.65685 10 11 11.3431 11 13V14C11 14.5523 10.5523 15 10 15H2C1.44772 15 1 14.5523 1 14ZM9 4C9 5.65685 7.65685 7 6 7C4.34315 7 3 5.65685 3 4C3 2.34315 4.34315 1 6 1C7.65685 1 9 2.34315 9 4Z" stroke="#ECF15E" stroke-width="2" stroke-linecap="round"/>
</svg>
