<svg width="25" height="20" viewBox="0 0 25 20" fill="none" xmlns="http://www.w3.org/2000/svg">
<path fill-rule="evenodd" clip-rule="evenodd" d="M12.0761 0C12.4345 0 12.7744 0.159191 13.0038 0.434517L16.9066 5.1178V1.20761C16.9066 0.540666 17.4472 0 18.1142 0H22.9446C23.6116 0 24.1522 0.540666 24.1522 1.20761V4.83044C24.1522 5.49739 23.6116 6.03806 22.9446 6.03806H19.3218V7.24567H21.737C22.4039 7.24567 22.9446 7.78633 22.9446 8.45328V18.1142C22.9446 18.7811 22.4039 19.3218 21.737 19.3218H2.41522C1.74827 19.3218 1.20761 18.7811 1.20761 18.1142V9.66089C0.750202 9.66088 0.332056 9.40245 0.127498 8.99334C-0.0770618 8.58422 -0.0329165 8.09464 0.241529 7.72871L3.86436 2.89827C4.09242 2.59418 4.45035 2.41522 4.83045 2.41522H9.49781L11.1484 0.434517C11.3778 0.159191 11.7177 0 12.0761 0ZM10.9956 4.39648C11.0163 4.37166 11.0359 4.34616 11.0543 4.32007L12.0761 3.09396L17.1864 9.22637C17.4159 9.5017 17.7558 9.66089 18.1142 9.66089H20.5294V16.9066H3.62283V9.66089H6.03805C6.39619 9.66089 6.73632 9.50137 6.96576 9.22637L10.9956 4.39648ZM7.48512 4.83044H5.43426L3.62284 7.24567H5.47244L7.48512 4.83044ZM19.3218 3.62283H21.737V2.41522H19.3218V3.62283ZM12.0761 9.66089C11.4092 9.66089 10.8685 10.2016 10.8685 10.8685C10.8685 11.5354 11.4092 12.0761 12.0761 12.0761C12.7431 12.0761 13.2837 11.5354 13.2837 10.8685C13.2837 10.2016 12.7431 9.66089 12.0761 9.66089ZM8.45327 10.8685C8.45327 8.86766 10.0753 7.24567 12.0761 7.24567C14.0769 7.24567 15.6989 8.86766 15.6989 10.8685C15.6989 12.8693 14.0769 14.4913 12.0761 14.4913C10.0753 14.4913 8.45327 12.8693 8.45327 10.8685Z" fill="#ECF15E"/>
</svg>
